<svg width="596" height="596" viewBox="0 0 596 596" fill="none" xmlns="http://www.w3.org/2000/svg">
<path fill-rule="evenodd" clip-rule="evenodd" d="M260.003 9.48964C276.099 14.7062 289.413 18.9748 289.59 18.9748C289.766 18.9748 289.911 34.836 289.911 54.222V89.4692H260.088H230.264V44.7324C230.264 20.1271 230.371 -0.00271105 230.501 2.73864e-07C230.631 0.00180782 243.907 4.27215 260.003 9.48964ZM364.705 44.7324V89.4692H334.982H305.259L305.234 54.2726L305.211 19.076L313.892 16.2915C318.668 14.7596 331.734 10.4992 342.93 6.8226C354.125 3.14604 363.604 0.105733 363.995 0.0668705C364.386 0.0271044 364.705 20.1271 364.705 44.7324ZM495.833 105.266C534.291 108.405 556.964 116.353 573.681 132.559C585.572 144.086 591.964 158.181 594.509 178.491C596.937 197.875 594.377 215.798 587.15 230.006C575.511 252.893 553.749 267.455 520.449 274.641C494.092 280.329 454.538 282.218 398.249 280.477L379.248 279.889L383.895 268.504C386.452 262.243 389.339 255.086 390.313 252.601C391.286 250.115 392.981 245.845 394.08 243.111C395.178 240.377 396.967 235.848 398.056 233.047L400.035 227.955L450.301 227.5C497.249 227.076 501.08 226.922 508.337 225.16C518.603 222.668 523.732 220.271 528.377 215.793C535.25 209.165 537.626 201.076 536.652 187.609C535.975 178.243 533.254 171.571 528.338 167.222C517.188 157.356 502.749 155.98 420.328 156.921L365.652 157.544V376.187C365.652 496.441 365.301 594.695 364.872 594.529C364.443 594.363 350.816 589.157 334.591 582.959L305.089 571.69L305.091 337.81L305.092 103.93L392.414 103.941C460.694 103.95 483.247 104.239 495.833 105.266ZM289.911 338.448V572.061L286.36 573.519C284.408 574.32 281.745 575.311 280.443 575.72C279.141 576.129 267.106 580.724 253.697 585.932L229.318 595.4V376.914V158.429L220.087 157.845C205.966 156.952 110.103 157.182 97.2124 158.14C71.5427 160.046 61.5543 167.119 58.7936 185.347C56.5289 200.302 60.9815 213.236 70.4861 219.307C76.3921 223.081 85.1459 225.782 94.9496 226.858C99.336 227.339 123.665 227.736 149.016 227.74L195.106 227.747L195.741 229.78C196.089 230.899 198.019 235.881 200.029 240.852C202.039 245.822 205.643 254.77 208.037 260.735C210.431 266.7 213.216 273.485 214.226 275.814C215.236 278.143 216.063 280.279 216.063 280.559C216.063 280.84 195.08 281.064 169.435 281.059C109.336 281.044 91.0423 279.606 66.1925 272.946C22.0476 261.113 -0.0868465 234.062 0.000256066 192.048C0.100613 143.502 24.9286 117.004 78.7817 107.966C94.4659 105.334 103.78 105.099 197.838 104.964L289.911 104.833V338.448Z" fill="black"/>
</svg>
