<svg width="1439" height="1238" viewBox="0 0 1439 1238" fill="none" xmlns="http://www.w3.org/2000/svg">
<rect width="1439" height="1238" fill="#1D2F1D"/>
<path d="M61.955 69V45.165H65.455V69H61.955ZM46.975 69V45.165H50.475V69H46.975ZM49.285 58.99V55.7H63.005V58.99H49.285ZM77.9935 69.35C76.3368 69.35 74.8785 68.9883 73.6185 68.265C72.3585 67.5183 71.3785 66.48 70.6785 65.15C69.9785 63.82 69.6285 62.2683 69.6285 60.495C69.6285 58.6983 69.9785 57.135 70.6785 55.805C71.3785 54.475 72.3585 53.4367 73.6185 52.69C74.8785 51.9433 76.3368 51.57 77.9935 51.57C79.6735 51.57 81.1435 51.9433 82.4035 52.69C83.6635 53.4367 84.6435 54.475 85.3435 55.805C86.0435 57.135 86.3935 58.6983 86.3935 60.495C86.3935 60.6583 86.3818 60.8333 86.3585 61.02C86.3585 61.1833 86.3468 61.335 86.3235 61.475H72.9535V58.465H83.8035L82.8235 60.495C82.8235 58.7217 82.4268 57.2633 81.6335 56.12C80.8401 54.9767 79.6268 54.405 77.9935 54.405C76.5468 54.405 75.3918 54.8717 74.5285 55.805C73.6651 56.715 73.2335 57.9167 73.2335 59.41V61.23C73.2335 62.7933 73.6535 64.0417 74.4935 64.975C75.3335 65.885 76.5001 66.34 77.9935 66.34C79.3701 66.34 80.4318 66.0483 81.1785 65.465C81.9251 64.8817 82.5785 64.1583 83.1385 63.295L85.7635 64.94C84.9701 66.41 83.9435 67.5183 82.6835 68.265C81.4468 68.9883 79.8835 69.35 77.9935 69.35ZM95.0024 69.49C93.6724 69.49 92.529 69.2567 91.5724 68.79C90.6157 68.3233 89.8807 67.6583 89.3674 66.795C88.8774 65.9083 88.6324 64.8583 88.6324 63.645C88.6324 62.525 88.889 61.5333 89.4024 60.67C89.9157 59.7833 90.6507 59.0833 91.6074 58.57C92.564 58.0567 93.6957 57.8 95.0024 57.8C96.6357 57.8 97.9424 58.1733 98.9224 58.92C99.9257 59.6433 100.626 60.6467 101.022 61.93H99.0624V57.555C99.0624 56.8317 98.8174 56.1667 98.3274 55.56C97.8374 54.9533 96.9741 54.65 95.7374 54.65C95.084 54.65 94.3607 54.7317 93.5674 54.895C92.7974 55.035 91.9924 55.2917 91.1524 55.665L90.1024 52.97C91.059 52.5033 92.0507 52.1533 93.0774 51.92C94.104 51.6867 95.1074 51.57 96.0874 51.57C97.5574 51.57 98.7707 51.8383 99.7274 52.375C100.684 52.9117 101.396 53.635 101.862 54.545C102.329 55.4317 102.562 56.435 102.562 57.555V69H100.042L99.1674 65.885L101.022 65.36C100.602 66.7367 99.8557 67.775 98.7824 68.475C97.7091 69.1517 96.4491 69.49 95.0024 69.49ZM95.6324 66.375C96.6591 66.375 97.4874 66.1417 98.1174 65.675C98.7474 65.185 99.0624 64.5083 99.0624 63.645C99.0624 62.7583 98.7474 62.0817 98.1174 61.615C97.4874 61.1483 96.6591 60.915 95.6324 60.915C94.6057 60.915 93.7774 61.1483 93.1474 61.615C92.5174 62.0817 92.2024 62.7583 92.2024 63.645C92.2024 64.5083 92.5174 65.185 93.1474 65.675C93.7774 66.1417 94.6057 66.375 95.6324 66.375ZM113.734 69.35C112.171 69.35 110.794 68.9767 109.604 68.23C108.414 67.4833 107.492 66.445 106.839 65.115C106.186 63.7617 105.859 62.1983 105.859 60.425C105.859 58.6517 106.186 57.1 106.839 55.77C107.492 54.44 108.414 53.4133 109.604 52.69C110.794 51.9433 112.171 51.57 113.734 51.57C115.274 51.57 116.616 51.9433 117.759 52.69C118.902 53.4133 119.789 54.44 120.419 55.77C121.072 57.1 121.399 58.6517 121.399 60.425C121.399 62.1983 121.072 63.7617 120.419 65.115C119.789 66.445 118.902 67.4833 117.759 68.23C116.616 68.9767 115.274 69.35 113.734 69.35ZM114.259 66.34C115.706 66.34 116.861 65.8033 117.724 64.73C118.611 63.6567 119.054 62.2333 119.054 60.46C119.054 58.6867 118.611 57.2633 117.724 56.19C116.861 55.1167 115.706 54.58 114.259 54.58C112.812 54.58 111.646 55.1167 110.759 56.19C109.872 57.2633 109.429 58.675 109.429 60.425C109.429 62.1983 109.872 63.6333 110.759 64.73C111.646 65.8033 112.812 66.34 114.259 66.34ZM119.719 69L118.879 65.57H119.229V55.84H118.879V45.165H122.379V69H119.719ZM134.014 69.35C132.357 69.35 130.899 68.9883 129.639 68.265C128.379 67.5183 127.399 66.48 126.699 65.15C125.999 63.82 125.649 62.2683 125.649 60.495C125.649 58.6983 125.999 57.135 126.699 55.805C127.399 54.475 128.379 53.4367 129.639 52.69C130.899 51.9433 132.357 51.57 134.014 51.57C135.694 51.57 137.164 51.9433 138.424 52.69C139.684 53.4367 140.664 54.475 141.364 55.805C142.064 57.135 142.414 58.6983 142.414 60.495C142.414 60.6583 142.402 60.8333 142.379 61.02C142.379 61.1833 142.367 61.335 142.344 61.475H128.974V58.465H139.824L138.844 60.495C138.844 58.7217 138.447 57.2633 137.654 56.12C136.861 54.9767 135.647 54.405 134.014 54.405C132.567 54.405 131.412 54.8717 130.549 55.805C129.686 56.715 129.254 57.9167 129.254 59.41V61.23C129.254 62.7933 129.674 64.0417 130.514 64.975C131.354 65.885 132.521 66.34 134.014 66.34C135.391 66.34 136.452 66.0483 137.199 65.465C137.946 64.8817 138.599 64.1583 139.159 63.295L141.784 64.94C140.991 66.41 139.964 67.5183 138.704 68.265C137.467 68.9883 135.904 69.35 134.014 69.35ZM148.363 51.92L149.203 56.54V69H145.703V51.92H148.363ZM148.678 57.975L147.838 57.59V55.035L148.153 54.65C148.386 54.23 148.748 53.7867 149.238 53.32C149.751 52.83 150.346 52.4217 151.023 52.095C151.7 51.745 152.388 51.57 153.088 51.57C153.438 51.57 153.765 51.5933 154.068 51.64C154.395 51.6867 154.64 51.7683 154.803 51.885V55.035H153.718C152.131 55.035 150.976 55.28 150.253 55.77C149.53 56.2367 149.005 56.9717 148.678 57.975Z" fill="white"/>
<path d="M263.845 58.01H268.78C270.32 58.01 271.557 57.59 272.49 56.75C273.423 55.91 273.89 54.7433 273.89 53.25C273.89 51.6633 273.423 50.4733 272.49 49.68C271.58 48.8633 270.355 48.455 268.815 48.455H263.845L264.475 47.65V69H260.975V45.165H269.41C271.043 45.165 272.467 45.5267 273.68 46.25C274.893 46.9733 275.838 47.9417 276.515 49.155C277.192 50.3683 277.53 51.7333 277.53 53.25C277.53 54.7433 277.192 56.1083 276.515 57.345C275.838 58.5583 274.882 59.5267 273.645 60.25C272.432 60.95 271.008 61.3 269.375 61.3H263.845V58.01ZM285.077 69.49C283.747 69.49 282.603 69.2567 281.647 68.79C280.69 68.3233 279.955 67.6583 279.442 66.795C278.952 65.9083 278.707 64.8583 278.707 63.645C278.707 62.525 278.963 61.5333 279.477 60.67C279.99 59.7833 280.725 59.0833 281.682 58.57C282.638 58.0567 283.77 57.8 285.077 57.8C286.71 57.8 288.017 58.1733 288.997 58.92C290 59.6433 290.7 60.6467 291.097 61.93H289.137V57.555C289.137 56.8317 288.892 56.1667 288.402 55.56C287.912 54.9533 287.048 54.65 285.812 54.65C285.158 54.65 284.435 54.7317 283.642 54.895C282.872 55.035 282.067 55.2917 281.227 55.665L280.177 52.97C281.133 52.5033 282.125 52.1533 283.152 51.92C284.178 51.6867 285.182 51.57 286.162 51.57C287.632 51.57 288.845 51.8383 289.802 52.375C290.758 52.9117 291.47 53.635 291.937 54.545C292.403 55.4317 292.637 56.435 292.637 57.555V69H290.117L289.242 65.885L291.097 65.36C290.677 66.7367 289.93 67.775 288.857 68.475C287.783 69.1517 286.523 69.49 285.077 69.49ZM285.707 66.375C286.733 66.375 287.562 66.1417 288.192 65.675C288.822 65.185 289.137 64.5083 289.137 63.645C289.137 62.7583 288.822 62.0817 288.192 61.615C287.562 61.1483 286.733 60.915 285.707 60.915C284.68 60.915 283.852 61.1483 283.222 61.615C282.592 62.0817 282.277 62.7583 282.277 63.645C282.277 64.5083 282.592 65.185 283.222 65.675C283.852 66.1417 284.68 66.375 285.707 66.375ZM299.643 51.92L300.483 56.54V69H296.983V51.92H299.643ZM299.958 57.975L299.118 57.59V55.035L299.433 54.65C299.666 54.23 300.028 53.7867 300.518 53.32C301.031 52.83 301.626 52.4217 302.303 52.095C302.98 51.745 303.668 51.57 304.368 51.57C304.718 51.57 305.045 51.5933 305.348 51.64C305.675 51.6867 305.92 51.7683 306.083 51.885V55.035H304.998C303.411 55.035 302.256 55.28 301.533 55.77C300.81 56.2367 300.285 56.9717 299.958 57.975ZM313.309 69.49C311.979 69.49 310.836 69.2567 309.879 68.79C308.922 68.3233 308.187 67.6583 307.674 66.795C307.184 65.9083 306.939 64.8583 306.939 63.645C306.939 62.525 307.196 61.5333 307.709 60.67C308.222 59.7833 308.957 59.0833 309.914 58.57C310.871 58.0567 312.002 57.8 313.309 57.8C314.942 57.8 316.249 58.1733 317.229 58.92C318.232 59.6433 318.932 60.6467 319.329 61.93H317.369V57.555C317.369 56.8317 317.124 56.1667 316.634 55.56C316.144 54.9533 315.281 54.65 314.044 54.65C313.391 54.65 312.667 54.7317 311.874 54.895C311.104 55.035 310.299 55.2917 309.459 55.665L308.409 52.97C309.366 52.5033 310.357 52.1533 311.384 51.92C312.411 51.6867 313.414 51.57 314.394 51.57C315.864 51.57 317.077 51.8383 318.034 52.375C318.991 52.9117 319.702 53.635 320.169 54.545C320.636 55.4317 320.869 56.435 320.869 57.555V69H318.349L317.474 65.885L319.329 65.36C318.909 66.7367 318.162 67.775 317.089 68.475C316.016 69.1517 314.756 69.49 313.309 69.49ZM313.939 66.375C314.966 66.375 315.794 66.1417 316.424 65.675C317.054 65.185 317.369 64.5083 317.369 63.645C317.369 62.7583 317.054 62.0817 316.424 61.615C315.794 61.1483 314.966 60.915 313.939 60.915C312.912 60.915 312.084 61.1483 311.454 61.615C310.824 62.0817 310.509 62.7583 310.509 63.645C310.509 64.5083 310.824 65.185 311.454 65.675C312.084 66.1417 312.912 66.375 313.939 66.375ZM332.741 75.93C331.761 75.93 330.827 75.79 329.941 75.51C329.077 75.2533 328.284 74.8217 327.561 74.215C326.861 73.6083 326.231 72.8033 325.671 71.8L325.426 71.345L328.191 69.84C328.797 70.8433 329.439 71.59 330.116 72.08C330.816 72.5933 331.691 72.85 332.741 72.85C334.164 72.85 335.284 72.4067 336.101 71.52C336.941 70.6333 337.361 69.2683 337.361 67.425V63.785H337.711V55.35H337.361L338.201 51.92H340.861V66.865C340.861 68.8717 340.499 70.5517 339.776 71.905C339.076 73.2583 338.119 74.2617 336.906 74.915C335.692 75.5917 334.304 75.93 332.741 75.93ZM332.321 67.95C330.734 67.95 329.334 67.6117 328.121 66.935C326.931 66.2583 325.997 65.3133 325.321 64.1C324.667 62.8633 324.341 61.4283 324.341 59.795C324.341 58.1383 324.667 56.7033 325.321 55.49C325.997 54.2533 326.931 53.2967 328.121 52.62C329.334 51.92 330.734 51.57 332.321 51.57C333.837 51.57 335.156 51.92 336.276 52.62C337.419 53.2967 338.306 54.2533 338.936 55.49C339.566 56.7033 339.881 58.1383 339.881 59.795C339.881 61.4283 339.566 62.8633 338.936 64.1C338.306 65.3133 337.419 66.2583 336.276 66.935C335.156 67.6117 333.837 67.95 332.321 67.95ZM332.741 64.94C334.187 64.94 335.342 64.4733 336.206 63.54C337.092 62.5833 337.536 61.3233 337.536 59.76C337.536 58.1967 337.092 56.9483 336.206 56.015C335.342 55.0583 334.187 54.58 332.741 54.58C331.294 54.58 330.127 55.0583 329.241 56.015C328.354 56.9717 327.911 58.2317 327.911 59.795C327.911 61.335 328.354 62.5833 329.241 63.54C330.127 64.4733 331.294 64.94 332.741 64.94ZM348.007 51.92L348.847 56.54V69H345.347V51.92H348.007ZM348.322 57.975L347.482 57.59V55.035L347.797 54.65C348.031 54.23 348.392 53.7867 348.882 53.32C349.396 52.83 349.991 52.4217 350.667 52.095C351.344 51.745 352.032 51.57 352.732 51.57C353.082 51.57 353.409 51.5933 353.712 51.64C354.039 51.6867 354.284 51.7683 354.447 51.885V55.035H353.362C351.776 55.035 350.621 55.28 349.897 55.77C349.174 56.2367 348.649 56.9717 348.322 57.975ZM361.673 69.49C360.343 69.49 359.2 69.2567 358.243 68.79C357.287 68.3233 356.552 67.6583 356.038 66.795C355.548 65.9083 355.303 64.8583 355.303 63.645C355.303 62.525 355.56 61.5333 356.073 60.67C356.587 59.7833 357.322 59.0833 358.278 58.57C359.235 58.0567 360.367 57.8 361.673 57.8C363.307 57.8 364.613 58.1733 365.593 58.92C366.597 59.6433 367.297 60.6467 367.693 61.93H365.733V57.555C365.733 56.8317 365.488 56.1667 364.998 55.56C364.508 54.9533 363.645 54.65 362.408 54.65C361.755 54.65 361.032 54.7317 360.238 54.895C359.468 55.035 358.663 55.2917 357.823 55.665L356.773 52.97C357.73 52.5033 358.722 52.1533 359.748 51.92C360.775 51.6867 361.778 51.57 362.758 51.57C364.228 51.57 365.442 51.8383 366.398 52.375C367.355 52.9117 368.067 53.635 368.533 54.545C369 55.4317 369.233 56.435 369.233 57.555V69H366.713L365.838 65.885L367.693 65.36C367.273 66.7367 366.527 67.775 365.453 68.475C364.38 69.1517 363.12 69.49 361.673 69.49ZM362.303 66.375C363.33 66.375 364.158 66.1417 364.788 65.675C365.418 65.185 365.733 64.5083 365.733 63.645C365.733 62.7583 365.418 62.0817 364.788 61.615C364.158 61.1483 363.33 60.915 362.303 60.915C361.277 60.915 360.448 61.1483 359.818 61.615C359.188 62.0817 358.873 62.7583 358.873 63.645C358.873 64.5083 359.188 65.185 359.818 65.675C360.448 66.1417 361.277 66.375 362.303 66.375ZM382.225 69.35C380.685 69.35 379.343 68.9883 378.2 68.265C377.057 67.5183 376.158 66.48 375.505 65.15C374.875 63.82 374.56 62.2683 374.56 60.495C374.56 58.6983 374.875 57.135 375.505 55.805C376.158 54.475 377.057 53.4367 378.2 52.69C379.343 51.9433 380.685 51.57 382.225 51.57C383.812 51.57 385.188 51.9433 386.355 52.69C387.545 53.4367 388.467 54.475 389.12 55.805C389.773 57.135 390.1 58.6983 390.1 60.495C390.1 62.2683 389.773 63.82 389.12 65.15C388.467 66.48 387.545 67.5183 386.355 68.265C385.188 68.9883 383.812 69.35 382.225 69.35ZM373.58 75.65V51.92H376.24L377.08 55.35H376.73V65.08H377.08V75.65H373.58ZM381.7 66.34C383.147 66.34 384.313 65.8033 385.2 64.73C386.087 63.6567 386.53 62.245 386.53 60.495C386.53 58.7217 386.087 57.2983 385.2 56.225C384.313 55.1283 383.147 54.58 381.7 54.58C380.277 54.58 379.122 55.1167 378.235 56.19C377.348 57.2633 376.905 58.6867 376.905 60.46C376.905 62.2333 377.348 63.6567 378.235 64.73C379.122 65.8033 380.277 66.34 381.7 66.34ZM393.37 69V45.165H396.87V69H393.37ZM404.815 69V58.08C404.815 56.8667 404.535 56.05 403.975 55.63C403.438 55.21 402.797 55 402.05 55C401.303 55 400.545 55.1517 399.775 55.455C399.005 55.7583 398.317 56.1667 397.71 56.68C397.103 57.1933 396.637 57.765 396.31 58.395L395.89 55.035C396.543 54.2883 397.255 53.6583 398.025 53.145C398.795 52.6317 399.612 52.2467 400.475 51.99C401.338 51.71 402.225 51.57 403.135 51.57C404.348 51.57 405.305 51.78 406.005 52.2C406.705 52.5967 407.218 53.145 407.545 53.845C407.872 54.5217 408.082 55.2917 408.175 56.155C408.268 57.0183 408.315 57.905 408.315 58.815V69H404.815Z" fill="white"/>
<path d="M46.184 138V109.398H52.316V138H46.184ZM59.204 138V125.82C59.204 124.644 58.994 123.874 58.574 123.51C58.154 123.118 57.594 122.922 56.894 122.922C56.306 122.922 55.69 123.048 55.046 123.3C54.43 123.524 53.828 123.846 53.24 124.266C52.652 124.686 52.134 125.162 51.686 125.694L49.88 121.368C50.608 120.556 51.434 119.814 52.358 119.142C53.282 118.47 54.29 117.938 55.382 117.546C56.474 117.154 57.622 116.958 58.826 116.958C60.198 116.958 61.318 117.196 62.186 117.672C63.054 118.12 63.712 118.75 64.16 119.562C64.636 120.374 64.944 121.298 65.084 122.334C65.252 123.342 65.336 124.392 65.336 125.484V138H59.204ZM72.8976 114.396L74.9976 116.076C74.8296 116.58 74.4096 117.084 73.7376 117.588C73.0936 118.064 72.2536 118.47 71.2176 118.806C70.2096 119.114 69.0336 119.268 67.6896 119.268V113.472C68.7536 113.472 69.7336 113.304 70.6296 112.968C71.5536 112.632 72.3376 112.156 72.9816 111.54C73.6256 110.924 74.0736 110.21 74.3256 109.398H79.0296V138H72.8976V114.396Z" fill="white"/>
<path d="M45.768 200V176.846H50.732V200H45.768ZM56.308 200V190.14C56.308 189.188 56.138 188.565 55.798 188.27C55.458 187.953 55.0047 187.794 54.438 187.794C53.962 187.794 53.4633 187.896 52.942 188.1C52.4433 188.281 51.956 188.542 51.48 188.882C51.004 189.222 50.5847 189.607 50.222 190.038L48.76 186.536C49.3493 185.879 50.018 185.278 50.766 184.734C51.514 184.19 52.33 183.759 53.214 183.442C54.098 183.125 55.0273 182.966 56.002 182.966C57.1127 182.966 58.0193 183.159 58.722 183.544C59.4247 183.907 59.9573 184.417 60.32 185.074C60.7053 185.731 60.9547 186.479 61.068 187.318C61.204 188.134 61.272 188.984 61.272 189.868V200H56.308ZM78.8402 182.966C78.8402 183.918 78.7042 184.836 78.4322 185.72C78.1828 186.604 77.7408 187.511 77.1062 188.44C76.4942 189.369 75.6442 190.412 74.5562 191.568L69.1842 197.45L68.6062 195.206H79.0442V200H64.2542V195.852L70.3742 189.358C71.3262 188.338 72.0628 187.499 72.5842 186.842C73.1055 186.162 73.4568 185.573 73.6382 185.074C73.8422 184.553 73.9442 184.054 73.9442 183.578C73.9442 182.853 73.7288 182.286 73.2982 181.878C72.8675 181.47 72.3348 181.266 71.7002 181.266C70.9975 181.266 70.2722 181.504 69.5242 181.98C68.7988 182.456 68.0282 183.249 67.2122 184.36L63.6762 181.674C64.3108 180.654 65.0135 179.759 65.7842 178.988C66.5775 178.195 67.4728 177.571 68.4702 177.118C69.4902 176.665 70.6122 176.438 71.8362 176.438C73.3095 176.438 74.5675 176.733 75.6102 177.322C76.6528 177.911 77.4462 178.705 77.9902 179.702C78.5568 180.677 78.8402 181.765 78.8402 182.966Z" fill="white"/>
<path d="M45.508 255V235.251H49.742V255H45.508ZM54.498 255V246.59C54.498 245.778 54.353 245.246 54.063 244.995C53.773 244.724 53.3863 244.589 52.903 244.589C52.497 244.589 52.0717 244.676 51.627 244.85C51.2017 245.005 50.786 245.227 50.38 245.517C49.974 245.807 49.6163 246.136 49.307 246.503L48.06 243.516C48.5627 242.955 49.133 242.443 49.771 241.979C50.409 241.515 51.105 241.148 51.859 240.877C52.613 240.606 53.4057 240.471 54.237 240.471C55.1843 240.471 55.9577 240.635 56.557 240.964C57.1563 241.273 57.6107 241.708 57.92 242.269C58.2487 242.83 58.4613 243.468 58.558 244.183C58.674 244.879 58.732 245.604 58.732 246.358V255H54.498ZM67.7163 255.348C66.131 255.348 64.7583 255.068 63.5983 254.507C62.4577 253.927 61.4137 253.067 60.4663 251.926L63.1633 249.345C63.7627 249.983 64.391 250.457 65.0483 250.766C65.7057 251.075 66.4403 251.23 67.2523 251.23C68.1997 251.23 68.9247 251.017 69.4273 250.592C69.9493 250.167 70.2103 249.616 70.2103 248.939C70.2103 248.359 70.046 247.895 69.7173 247.547C69.408 247.18 68.973 246.919 68.4123 246.764C67.8517 246.59 67.204 246.503 66.4693 246.503C66.2373 246.503 65.9957 246.513 65.7443 246.532C65.493 246.532 65.232 246.551 64.9613 246.59V242.907C65.2707 242.946 65.522 242.975 65.7153 242.994C65.9087 242.994 66.102 242.994 66.2953 242.994C67.32 242.994 68.103 242.81 68.6443 242.443C69.1857 242.076 69.4563 241.554 69.4563 240.877C69.4563 240.297 69.2533 239.843 68.8473 239.514C68.4607 239.185 67.9097 239.021 67.1943 239.021C66.4983 239.021 65.8507 239.195 65.2513 239.543C64.652 239.872 64.0623 240.374 63.4823 241.051L60.7563 238.325C61.8003 237.107 62.854 236.237 63.9173 235.715C65 235.174 66.2373 234.903 67.6293 234.903C68.886 234.903 69.9687 235.135 70.8773 235.599C71.786 236.063 72.4723 236.691 72.9363 237.484C73.4197 238.277 73.6613 239.185 73.6613 240.21C73.6613 241.834 73.0813 243.139 71.9213 244.125C70.7613 245.092 69.1373 245.575 67.0493 245.575L67.0783 243.69C68.567 243.69 69.872 243.912 70.9933 244.357C72.1147 244.782 72.975 245.42 73.5743 246.271C74.193 247.122 74.5023 248.156 74.5023 249.374C74.5023 250.476 74.2317 251.481 73.6903 252.39C73.1683 253.279 72.395 253.995 71.3703 254.536C70.365 255.077 69.147 255.348 67.7163 255.348Z" fill="white"/>
<path d="M45.248 305V288.656H48.752V305H45.248ZM52.688 305V298.04C52.688 297.368 52.568 296.928 52.328 296.72C52.088 296.496 51.768 296.384 51.368 296.384C51.032 296.384 50.68 296.456 50.312 296.6C49.96 296.728 49.616 296.912 49.28 297.152C48.944 297.392 48.648 297.664 48.392 297.968L47.36 295.496C47.776 295.032 48.248 294.608 48.776 294.224C49.304 293.84 49.88 293.536 50.504 293.312C51.128 293.088 51.784 292.976 52.472 292.976C53.256 292.976 53.896 293.112 54.392 293.384C54.888 293.64 55.264 294 55.52 294.464C55.792 294.928 55.968 295.456 56.048 296.048C56.144 296.624 56.192 297.224 56.192 297.848V305H52.688ZM68.6411 293.816V305H65.0891V298.904L64.8011 298.016L66.2171 293.816H68.6411ZM58.1051 301.16V299.072L61.7291 288.656H65.2091L61.5611 299.24L61.2971 297.752H70.8011V301.16H58.1051Z" fill="white"/>
<path d="M45.04 349V335.38H47.96V349H45.04ZM51.24 349V343.2C51.24 342.64 51.14 342.273 50.94 342.1C50.74 341.913 50.4733 341.82 50.14 341.82C49.86 341.82 49.5667 341.88 49.26 342C48.9667 342.107 48.68 342.26 48.4 342.46C48.12 342.66 47.8733 342.887 47.66 343.14L46.8 341.08C47.1467 340.693 47.54 340.34 47.98 340.02C48.42 339.7 48.9 339.447 49.42 339.26C49.94 339.073 50.4867 338.98 51.06 338.98C51.7133 338.98 52.2467 339.093 52.66 339.32C53.0733 339.533 53.3867 339.833 53.6 340.22C53.8267 340.607 53.9733 341.047 54.04 341.54C54.12 342.02 54.16 342.52 54.16 343.04V349H51.24ZM58.4542 343.86L56.1142 343.32V335.38H64.5142V338.22H57.8942L58.9142 337V342.56L57.8142 341.96C58.2009 341.32 58.6676 340.847 59.2142 340.54C59.7742 340.233 60.4542 340.08 61.2542 340.08C61.9876 340.08 62.6609 340.26 63.2742 340.62C63.8876 340.98 64.3742 341.493 64.7342 342.16C65.1076 342.827 65.2942 343.62 65.2942 344.54C65.2942 345.54 65.0809 346.393 64.6542 347.1C64.2409 347.793 63.6742 348.327 62.9542 348.7C62.2342 349.06 61.4076 349.24 60.4742 349.24C59.4476 349.24 58.5276 349.04 57.7142 348.64C56.9142 348.227 56.2809 347.667 55.8142 346.96L58.2742 345.42C58.5409 345.78 58.8542 346.053 59.2142 346.24C59.5742 346.413 59.9542 346.5 60.3542 346.5C60.9809 346.5 61.4609 346.333 61.7942 346C62.1276 345.653 62.2942 345.2 62.2942 344.64C62.2942 344.12 62.1209 343.693 61.7742 343.36C61.4276 343.027 60.9742 342.86 60.4142 342.86C60.0409 342.86 59.6876 342.94 59.3542 343.1C59.0342 343.247 58.7342 343.5 58.4542 343.86Z" fill="white"/>
<path d="M259.56 101.19L261.43 103.93H261.16L263.03 101.19H264.42L261.9 104.76L261.76 104.28L264.42 108H263.02L261 105.11H261.47L259.49 108H258.09L260.72 104.28L260.69 104.76L258.18 101.19H259.56ZM267.19 108.16C266.824 108.16 266.474 108.107 266.14 108C265.807 107.887 265.504 107.71 265.23 107.47C264.957 107.223 264.727 106.9 264.54 106.5L265.48 105.94C265.7 106.327 265.95 106.61 266.23 106.79C266.51 106.97 266.847 107.06 267.24 107.06C267.607 107.06 267.884 106.98 268.07 106.82C268.264 106.66 268.36 106.44 268.36 106.16C268.36 105.993 268.317 105.85 268.23 105.73C268.15 105.603 268.004 105.487 267.79 105.38C267.584 105.267 267.287 105.163 266.9 105.07C266.367 104.937 265.95 104.773 265.65 104.58C265.35 104.38 265.14 104.15 265.02 103.89C264.9 103.623 264.84 103.333 264.84 103.02C264.84 102.633 264.93 102.297 265.11 102.01C265.29 101.723 265.55 101.497 265.89 101.33C266.23 101.163 266.634 101.08 267.1 101.08C267.654 101.08 268.11 101.187 268.47 101.4C268.837 101.613 269.14 101.897 269.38 102.25L268.43 102.88C268.237 102.633 268.024 102.46 267.79 102.36C267.564 102.253 267.327 102.2 267.08 102.2C266.727 102.2 266.457 102.27 266.27 102.41C266.084 102.543 265.99 102.74 265.99 103C265.99 103.22 266.08 103.41 266.26 103.57C266.44 103.73 266.79 103.873 267.31 104C267.87 104.14 268.314 104.307 268.64 104.5C268.967 104.687 269.197 104.917 269.33 105.19C269.47 105.457 269.54 105.777 269.54 106.15C269.54 106.53 269.444 106.87 269.25 107.17C269.057 107.47 268.784 107.71 268.43 107.89C268.084 108.07 267.67 108.16 267.19 108.16ZM272.747 108.16C272.38 108.16 272.03 108.107 271.697 108C271.364 107.887 271.06 107.71 270.787 107.47C270.514 107.223 270.284 106.9 270.097 106.5L271.037 105.94C271.257 106.327 271.507 106.61 271.787 106.79C272.067 106.97 272.404 107.06 272.797 107.06C273.164 107.06 273.44 106.98 273.627 106.82C273.82 106.66 273.917 106.44 273.917 106.16C273.917 105.993 273.874 105.85 273.787 105.73C273.707 105.603 273.56 105.487 273.347 105.38C273.14 105.267 272.844 105.163 272.457 105.07C271.924 104.937 271.507 104.773 271.207 104.58C270.907 104.38 270.697 104.15 270.577 103.89C270.457 103.623 270.397 103.333 270.397 103.02C270.397 102.633 270.487 102.297 270.667 102.01C270.847 101.723 271.107 101.497 271.447 101.33C271.787 101.163 272.19 101.08 272.657 101.08C273.21 101.08 273.667 101.187 274.027 101.4C274.394 101.613 274.697 101.897 274.937 102.25L273.987 102.88C273.794 102.633 273.58 102.46 273.347 102.36C273.12 102.253 272.884 102.2 272.637 102.2C272.284 102.2 272.014 102.27 271.827 102.41C271.64 102.543 271.547 102.74 271.547 103C271.547 103.22 271.637 103.41 271.817 103.57C271.997 103.73 272.347 103.873 272.867 104C273.427 104.14 273.87 104.307 274.197 104.5C274.524 104.687 274.754 104.917 274.887 105.19C275.027 105.457 275.097 105.777 275.097 106.15C275.097 106.53 275 106.87 274.807 107.17C274.614 107.47 274.34 107.71 273.987 107.89C273.64 108.07 273.227 108.16 272.747 108.16Z" fill="white"/>
<path d="M259.872 132.828L262.116 136.116H261.792L264.036 132.828H265.704L262.68 137.112L262.512 136.536L265.704 141H264.024L261.6 137.532H262.164L259.788 141H258.108L261.264 136.536L261.228 137.112L258.216 132.828H259.872ZM269.028 141.192C268.588 141.192 268.168 141.128 267.768 141C267.368 140.864 267.004 140.652 266.676 140.364C266.348 140.068 266.072 139.68 265.848 139.2L266.976 138.528C267.24 138.992 267.54 139.332 267.876 139.548C268.212 139.764 268.616 139.872 269.088 139.872C269.528 139.872 269.86 139.776 270.084 139.584C270.316 139.392 270.432 139.128 270.432 138.792C270.432 138.592 270.38 138.42 270.276 138.276C270.18 138.124 270.004 137.984 269.748 137.856C269.5 137.72 269.144 137.596 268.68 137.484C268.04 137.324 267.54 137.128 267.18 136.896C266.82 136.656 266.568 136.38 266.424 136.068C266.28 135.748 266.208 135.4 266.208 135.024C266.208 134.56 266.316 134.156 266.532 133.812C266.748 133.468 267.06 133.196 267.468 132.996C267.876 132.796 268.36 132.696 268.92 132.696C269.584 132.696 270.132 132.824 270.564 133.08C271.004 133.336 271.368 133.676 271.656 134.1L270.516 134.856C270.284 134.56 270.028 134.352 269.748 134.232C269.476 134.104 269.192 134.04 268.896 134.04C268.472 134.04 268.148 134.124 267.924 134.292C267.7 134.452 267.588 134.688 267.588 135C267.588 135.264 267.696 135.492 267.912 135.684C268.128 135.876 268.548 136.048 269.172 136.2C269.844 136.368 270.376 136.568 270.768 136.8C271.16 137.024 271.436 137.3 271.596 137.628C271.764 137.948 271.848 138.332 271.848 138.78C271.848 139.236 271.732 139.644 271.5 140.004C271.268 140.364 270.94 140.652 270.516 140.868C270.1 141.084 269.604 141.192 269.028 141.192Z" fill="white"/>
<path d="M258.504 178L260.254 168.466H261.5L264.118 175.424H264.16L266.778 168.466H268.024L269.774 178H268.304L267.534 173.464C267.422 172.811 267.329 172.167 267.254 171.532C267.179 170.888 267.133 170.244 267.114 169.6H267.464C267.296 170.375 267.119 171.056 266.932 171.644C266.755 172.232 266.549 172.839 266.316 173.464L264.678 177.846H263.6L261.962 173.464C261.729 172.829 261.519 172.223 261.332 171.644C261.155 171.056 260.982 170.375 260.814 169.6H261.164C261.145 170.244 261.099 170.888 261.024 171.532C260.949 172.167 260.856 172.811 260.744 173.464L259.974 178H258.504Z" fill="white"/>
<path d="M258.434 217L260.156 207.466H261.612L264.104 214.27L266.61 207.466H268.052L269.788 217H268.108L267.38 212.562C267.277 211.937 267.189 211.321 267.114 210.714C267.039 210.098 266.988 209.477 266.96 208.852H267.394C267.226 209.571 267.058 210.219 266.89 210.798C266.722 211.367 266.531 211.951 266.316 212.548L264.734 216.86H263.474L261.892 212.548C261.677 211.941 261.486 211.353 261.318 210.784C261.15 210.215 260.982 209.571 260.814 208.852H261.248C261.22 209.477 261.169 210.098 261.094 210.714C261.029 211.321 260.94 211.937 260.828 212.562L260.1 217H258.434ZM276.887 217H271.273V207.466H272.897V215.852L272.617 215.46H276.887V217Z" fill="white"/>
<path d="M265.664 257H259.36V246.104H260.96V255.72L260.768 255.496H265.664V257Z" fill="white"/>
<path d="M261.402 286.742L264.39 291.26H263.778L266.748 286.742H269.916L265.488 293.222L265.38 292.376L269.952 299H266.712L263.58 294.32H264.462L261.366 299H258.126L262.644 292.376L262.662 293.222L258.252 286.742H261.402ZM278.503 299H271.051V286.742H273.679V297.452L273.013 296.462H278.503V299Z" fill="white"/>
</svg>
